<svg width="25" height="31" viewBox="0 0 25 31" fill="none" xmlns="http://www.w3.org/2000/svg">
<path d="M20.5319 16.4061C20.5464 15.2793 20.8466 14.1745 21.4044 13.1945C21.9622 12.2144 22.7595 11.391 23.7222 10.8008C23.1106 9.92988 22.3038 9.21311 21.3659 8.70746C20.4279 8.20182 19.3847 7.92123 18.319 7.88798C16.0456 7.65003 13.8417 9.2445 12.6833 9.2445C11.5024 9.2445 9.71879 7.9116 7.79812 7.95101C6.55579 7.99104 5.34503 8.35129 4.28382 8.99667C3.22262 9.64205 2.34715 10.5505 1.74273 11.6336C-0.875499 16.154 1.07746 22.7974 3.58551 26.4513C4.84034 28.2406 6.30687 30.2392 8.2258 30.1683C10.1036 30.0906 10.8049 28.9742 13.0716 28.9742C15.3172 28.9742 15.9752 30.1683 17.933 30.1232C19.948 30.0906 21.2175 28.3261 22.4283 26.5199C23.3299 25.245 24.0237 23.836 24.4839 22.345C23.3133 21.8513 22.3143 21.0248 21.6115 19.9687C20.9087 18.9126 20.5332 17.6736 20.5319 16.4061Z" fill="white"/>
<path d="M16.8338 5.4848C17.9325 4.16962 18.4737 2.47917 18.3426 0.772461C16.6642 0.948259 15.1137 1.74821 14.0003 3.01293C13.4558 3.63078 13.0389 4.34957 12.7732 5.12821C12.5075 5.90685 12.3983 6.73007 12.4519 7.55081C13.2914 7.55943 14.122 7.37797 14.881 7.02011C15.64 6.66224 16.3077 6.13729 16.8338 5.4848Z" fill="white"/>
</svg>
