<svg width="32" height="36" viewBox="0 0 32 36" fill="none" xmlns="http://www.w3.org/2000/svg">
<path d="M14.9067 17.1904L0.616333 32.4454C1.02078 34.0654 2.50374 35.2804 4.39115 35.2804C5.06522 35.2804 5.7393 35.1454 6.41337 34.7404L22.5911 25.4254L14.9067 17.1904Z" fill="#EA4335"/>
<path d="M29.4667 14.6252L22.4563 10.5752L14.6371 17.5952L22.4563 25.4252L29.3319 21.3752C30.5452 20.7002 31.3541 19.4852 31.3541 18.0002C31.4889 16.5152 30.68 15.3002 29.4667 14.6252Z" fill="#FBBC04"/>
<path d="M0.616322 3.55518C0.481507 3.82518 0.481506 4.23018 0.481506 4.50018V31.5002C0.481506 31.9052 0.481507 32.1752 0.616322 32.4452L15.446 17.5952L0.616322 3.55518Z" fill="#4285F4"/>
<path d="M15.0415 18.0002L22.4563 10.5752L6.27854 1.26021C5.73928 0.855215 5.06521 0.720215 4.25632 0.720215C2.50373 0.720215 0.885951 1.93522 0.481506 3.55522L15.0415 18.0002Z" fill="#34A853"/>
</svg>
