<svg width="110" height="38" viewBox="0 0 110 38" fill="none" xmlns="http://www.w3.org/2000/svg">
<path d="M0.472656 10.5156H7.66016L23.8516 30.3789V15.1055C23.8516 13.4779 23.6693 12.4622 23.3047 12.0586C22.8229 11.5117 22.0612 11.2383 21.0195 11.2383H20.1016V10.5156H29.3203V11.2383H28.3828C27.263 11.2383 26.4688 11.5768 26 12.2539C25.7135 12.6706 25.5703 13.6211 25.5703 15.1055V37.4297H24.8672L7.40625 16.1016V32.4102C7.40625 34.0378 7.58203 35.0534 7.93359 35.457C8.42839 36.0039 9.1901 36.2773 10.2188 36.2773H11.1562V37H1.9375V36.2773H2.85547C3.98828 36.2773 4.78906 35.9388 5.25781 35.2617C5.54427 34.8451 5.6875 33.8945 5.6875 32.4102V13.9922C4.91927 13.0938 4.33333 12.5013 3.92969 12.2148C3.53906 11.9284 2.95964 11.6615 2.19141 11.4141C1.8138 11.2969 1.24089 11.2383 0.472656 11.2383V10.5156ZM46.8398 19.1094V29.9492C46.8398 32.0195 46.8854 33.2891 46.9766 33.7578C47.0807 34.2135 47.237 34.5326 47.4453 34.7148C47.6667 34.8971 47.9206 34.9883 48.207 34.9883C48.6107 34.9883 49.0664 34.8776 49.5742 34.6562L49.8477 35.3398L44.4961 37.5469H43.6172V33.7578C42.0807 35.4245 40.9089 36.4727 40.1016 36.9023C39.2943 37.332 38.4414 37.5469 37.543 37.5469C36.5404 37.5469 35.668 37.2604 34.9258 36.6875C34.1966 36.1016 33.6888 35.3529 33.4023 34.4414C33.1159 33.5299 32.9727 32.2409 32.9727 30.5742V22.5859C32.9727 21.7396 32.8815 21.1536 32.6992 20.8281C32.5169 20.5026 32.2435 20.2552 31.8789 20.0859C31.5273 19.9036 30.8828 19.819 29.9453 19.832V19.1094H36.2148V31.082C36.2148 32.7487 36.5013 33.8424 37.0742 34.3633C37.6602 34.8841 38.3633 35.1445 39.1836 35.1445C39.7435 35.1445 40.375 34.9688 41.0781 34.6172C41.7943 34.2656 42.6406 33.5951 43.6172 32.6055V22.4688C43.6172 21.4531 43.4284 20.7695 43.0508 20.418C42.6862 20.0534 41.918 19.8581 40.7461 19.832V19.1094H46.8398ZM63.793 34.9883C62.9206 35.8997 62.0677 36.5573 61.2344 36.9609C60.401 37.3516 59.5026 37.5469 58.5391 37.5469C56.5859 37.5469 54.8802 36.7331 53.4219 35.1055C51.9635 33.4648 51.2344 31.362 51.2344 28.7969C51.2344 26.2318 52.0417 23.888 53.6562 21.7656C55.2708 19.6302 57.3477 18.5625 59.8867 18.5625C61.4622 18.5625 62.7643 19.0638 63.793 20.0664V16.7656C63.793 14.7214 63.7409 13.4648 63.6367 12.9961C63.5456 12.5273 63.3958 12.2083 63.1875 12.0391C62.9792 11.8698 62.7188 11.7852 62.4062 11.7852C62.0677 11.7852 61.6185 11.8893 61.0586 12.0977L60.8047 11.4141L66.1367 9.22656H67.0156V29.9102C67.0156 32.0065 67.0612 33.2891 67.1523 33.7578C67.2565 34.2135 67.4128 34.5326 67.6211 34.7148C67.8424 34.8971 68.0964 34.9883 68.3828 34.9883C68.7344 34.9883 69.2031 34.8776 69.7891 34.6562L70.0039 35.3398L64.6914 37.5469H63.793V34.9883ZM63.793 33.6211V24.4023C63.7148 23.5169 63.4805 22.7096 63.0898 21.9805C62.6992 21.2513 62.1784 20.7044 61.5273 20.3398C60.8893 19.9622 60.2643 19.7734 59.6523 19.7734C58.5065 19.7734 57.4844 20.2878 56.5859 21.3164C55.401 22.6706 54.8086 24.6497 54.8086 27.2539C54.8086 29.8841 55.3815 31.9023 56.5273 33.3086C57.6732 34.7018 58.9492 35.3984 60.3555 35.3984C61.5404 35.3984 62.6862 34.806 63.793 33.6211ZM74.1641 25.8477C74.151 28.5039 74.7956 30.5872 76.0977 32.0977C77.3997 33.6081 78.9297 34.3633 80.6875 34.3633C81.8594 34.3633 82.875 34.0443 83.7344 33.4062C84.6068 32.7552 85.3359 31.6484 85.9219 30.0859L86.5273 30.4766C86.2539 32.2604 85.4596 33.888 84.1445 35.3594C82.8294 36.8177 81.1823 37.5469 79.2031 37.5469C77.0547 37.5469 75.2122 36.7135 73.6758 35.0469C72.1523 33.3672 71.3906 31.1146 71.3906 28.2891C71.3906 25.2292 72.1719 22.8464 73.7344 21.1406C75.3099 19.4219 77.2826 18.5625 79.6523 18.5625C81.6576 18.5625 83.3047 19.2266 84.5938 20.5547C85.8828 21.8698 86.5273 23.6341 86.5273 25.8477H74.1641ZM74.1641 24.7148H82.4453C82.3802 23.569 82.2435 22.7617 82.0352 22.293C81.7096 21.5638 81.2214 20.9909 80.5703 20.5742C79.9323 20.1576 79.2617 19.9492 78.5586 19.9492C77.4779 19.9492 76.5078 20.3724 75.6484 21.2188C74.8021 22.0521 74.3073 23.2174 74.1641 24.7148Z" fill="#3E3E42"/>
<path d="M104.68 9.13232C103.464 9.13232 102.426 8.70508 101.567 7.85059C100.712 6.99609 100.285 5.96094 100.285 4.74512C100.285 3.5293 100.712 2.49414 101.567 1.63965C102.426 0.780273 103.464 0.350586 104.68 0.350586C105.891 0.350586 106.923 0.780273 107.778 1.63965C108.637 2.49414 109.067 3.5293 109.067 4.74512C109.067 5.96094 108.637 6.99609 107.778 7.85059C106.923 8.70508 105.891 9.13232 104.68 9.13232ZM104.687 1.03906C103.662 1.03906 102.785 1.40039 102.058 2.12305C101.335 2.8457 100.974 3.71973 100.974 4.74512C100.974 5.76562 101.335 6.63721 102.058 7.35986C102.785 8.08252 103.662 8.44385 104.687 8.44385C105.708 8.44385 106.577 8.08252 107.294 7.35986C108.017 6.63721 108.378 5.76562 108.378 4.74512C108.378 3.71973 108.017 2.8457 107.294 2.12305C106.577 1.40039 105.708 1.03906 104.687 1.03906ZM106.811 7.4917H105.8L105.192 6.15137C104.885 5.47754 104.553 5.14062 104.196 5.14062H103.815V7.4917H102.958V1.90332H104.533C105.183 1.90332 105.683 2.04004 106.035 2.31348C106.391 2.58691 106.569 2.95801 106.569 3.42676C106.569 3.80762 106.445 4.13477 106.196 4.4082C105.947 4.67676 105.6 4.85742 105.156 4.9502V4.97217C105.463 5.04053 105.771 5.38477 106.079 6.00488L106.811 7.4917ZM103.815 2.62842V4.42285H104.504C105.275 4.42285 105.661 4.12256 105.661 3.52197C105.661 3.17529 105.556 2.94092 105.346 2.81885C105.141 2.69189 104.814 2.62842 104.365 2.62842H103.815Z" fill="#212529"/>
</svg>
