<svg width="40" height="40" viewBox="0 0 40 40" fill="none" xmlns="http://www.w3.org/2000/svg">
<path d="M0 20C0 8.95431 8.95431 0 20 0C31.0457 0 40 8.95431 40 20C40 31.0457 31.0457 40 20 40C8.95431 40 0 31.0457 0 20Z" fill="#CAD4BD"/>
<g clip-path="url(#clip0_0_1)">
<path fill-rule="evenodd" clip-rule="evenodd" d="M17.0133 13.9507C17.0133 12.3875 18.3281 11.0803 20 11.0803C21.6719 11.0803 22.9867 12.3875 22.9867 13.9507V16.243C22.0639 15.8714 21.0558 15.6668 20 15.6668C18.9442 15.6668 17.9361 15.8714 17.0133 16.243V13.9507ZM15.52 17.0379V13.9507C15.52 11.5185 17.5482 9.58691 20 9.58691C22.4518 9.58691 24.48 11.5185 24.48 13.9507V17.0379C26.604 18.4762 28 20.9085 28 23.6668C28 28.0851 24.4183 31.6668 20 31.6668C15.5817 31.6668 12 28.0851 12 23.6668C12 20.9085 13.396 18.4762 15.52 17.0379ZM26.5067 23.6668C26.5067 27.2604 23.5935 30.1735 20 30.1735C16.4065 30.1735 13.4933 27.2604 13.4933 23.6668C13.4933 20.0733 16.4065 17.1602 20 17.1602C23.5935 17.1602 26.5067 20.0733 26.5067 23.6668ZM20.5333 24.109C21.1548 23.8894 21.6 23.2967 21.6 22.6001C21.6 21.7164 20.8836 21.0001 20 21.0001C19.1163 21.0001 18.4 21.7164 18.4 22.6001C18.4 23.2967 18.8452 23.8894 19.4667 24.109V26.3334H20.5333V24.109Z" fill="#577975"/>
</g>
<defs>
<clipPath id="clip0_0_1">
<rect width="16" height="23" fill="white" transform="translate(12 9)"/>
</clipPath>
</defs>
</svg>
