<svg width="40" height="40" viewBox="0 0 40 40" fill="none" xmlns="http://www.w3.org/2000/svg">
<path d="M0 20C0 8.95431 8.95431 0 20 0C31.0457 0 40 8.95431 40 20C40 31.0457 31.0457 40 20 40C8.95431 40 0 31.0457 0 20Z" fill="#DEB28A"/>
<g clip-path="url(#clip0_0_1)">
<path d="M20.1008 29.5111C21.7008 29.0111 26.7008 26.5111 26.7008 26.5111C28.8008 25.4111 28.7008 23.5111 28.7008 23.1111V12.3111C28.7008 11.7111 28.3008 11.3111 27.8008 11.1111C24.2008 9.91108 20.0008 10.0111 20.0008 10.0111C20.0008 10.0111 16.0008 9.81108 12.4008 11.1111C11.9008 11.3111 11.5008 11.8111 11.5008 12.3111V23.1111C11.5008 23.5111 11.4008 25.4111 13.5008 26.5111C13.5008 26.6111 18.5008 29.0111 20.1008 29.5111Z" stroke="#AA7549" stroke-width="1.2" stroke-miterlimit="10" stroke-linecap="round" stroke-linejoin="round"/>
<path d="M20.101 22.511C22.0892 22.511 23.701 20.8993 23.701 18.911C23.701 16.9228 22.0892 15.311 20.101 15.311C18.1127 15.311 16.501 16.9228 16.501 18.911C16.501 20.8993 18.1127 22.511 20.101 22.511Z" fill="#AA7549"/>
</g>
<defs>
<clipPath id="clip0_0_1">
<rect width="20" height="22" fill="white" transform="translate(10 9)"/>
</clipPath>
</defs>
</svg>
